# File created by Blade
# Date/Time:  Mon Nov 18 17:26:10 2013
# Frame Rate: 100.000 fps
#------------------------------------------------------
:FULLY-SPECIFIED
:DEGREES
226
root -35.679136 -2.729482 38.325401 12.214130 -4.797650 14.098405
Spine 22.442692 -4.139668 2.924170
Spine1 8.229889 -1.488299 6.071597
Spine2 -22.657165 -0.626959 0.301066
NeckDummy -0.062302 0.204459 0.943593 13.535103 -1.086729 0.883181
Neck 1.902641 -15.924303 39.099685
Head -0.455505 0.017817 0.323921 -5.944806 -5.308809 -2.301556
LeftShoulderDummy -0.113947 0.237868 0.972455 13.527336 -1.272275 1.134530
LeftShoulder 3.595502 -7.871374 12.966770
LeftArm 21.229888 35.672754 22.124411
LeftForeArm 46.173336
LeftForeArmRoll 25.542432
LeftHand -33.765862 -23.223643 12.534046
LeftHandThumb1 13.183735 4.906263
LeftHandIndex1 0.599732 41.782116
LeftHandPinky1 2.365363 62.564490
RightShoulderDummy -0.045390 0.199553 0.903785 13.506891 1.061795 -0.824335
RightShoulder 4.684208 6.112169 5.336749
RightArm 14.903589 68.450839 52.680517
RightForeArm 100.399239
RightForeArmRoll 23.117603
RightHand -46.085760 -25.005164 8.206863
RightHandThumb1 16.472667 7.730717
RightHandIndex1 3.453871 33.230907
RightHandPinky1 9.609044 62.386412
LeftUpLeg -5.271880 22.310025 -48.520328
LeftLeg 50.035254
LeftFoot -0.017851 -0.625131 -1.585998 -18.600534 17.882697 -6.017812
LeftToeBase 1.300408
RightUpLeg -1.029425 19.714395 -35.757550
RightLeg 48.131666
RightFoot -0.428698 0.895533 0.651281 -21.500738 5.124452 -15.072852
RightToeBase -4.232457
227
root -35.717397 -2.733521 38.325421 12.237160 -4.839899 14.051671
Spine 22.428091 -4.171114 2.935287
Spine1 8.228119 -1.491875 6.088940
Spine2 -22.643352 -0.631900 0.307215
NeckDummy -0.062815 0.204289 0.942102 13.552997 -1.094120 0.887633
Neck 1.960975 -15.868645 39.008457
Head -0.449504 0.016850 0.320988 -5.911899 -5.251502 -2.269758
LeftShoulderDummy -0.114230 0.237638 0.971056 13.545225 -1.278874 1.140095
LeftShoulder 3.558641 -7.800970 12.907973
LeftArm 21.300854 35.492562 22.140941
LeftForeArm 46.095302
LeftForeArmRoll 25.607564
LeftHand -33.626814 -23.180423 12.446550
LeftHandThumb1 13.163369 4.961639
LeftHandIndex1 0.103676 41.668768
LeftHandPinky1 2.222430 62.708434
RightShoulderDummy -0.045960 0.199204 0.902158 13.525114 1.069595 -0.828932
RightShoulder 4.635021 6.150992 5.285176
RightArm 15.068527 68.485973 52.993460
RightForeArm 100.393528
RightForeArmRoll 23.278476
RightHand -46.142874 -24.933630 8.204531
RightHandThumb1 16.503907 7.687233
RightHandIndex1 3.474994 33.182612
RightHandPinky1 9.666329 62.276939
LeftUpLeg -5.401025 22.350320 -48.560204
LeftLeg 50.019398
LeftFoot -0.011538 -0.624851 -1.583515 -18.567244 17.984061 -5.949864
LeftToeBase 1.330127
RightUpLeg -0.376253 19.600297 -35.849752
RightLeg 48.441496
RightFoot -0.412422 0.912689 0.687186 -20.773684 5.374217 -15.534368
RightToeBase -4.094731
228
root -35.763673 -2.740315 38.328895 12.270507 -4.865279 14.058750
Spine 22.387474 -4.184026 2.932431
Spine1 8.222557 -1.484903 6.075056
Spine2 -22.623394 -0.619198 0.304686
NeckDummy -0.061645 0.202991 0.940535 13.573407 -1.096025 0.901522
Neck 2.033484 -15.852056 38.948168
Head -0.445658 0.014756 0.315069 -5.845432 -5.204245 -2.271140
LeftShoulderDummy -0.113214 0.236239 0.969557 13.567216 -1.280590 1.148170
LeftShoulder 3.540544 -7.728123 12.908487
LeftArm 21.345257 35.371964 22.200440
LeftForeArm 46.013662
LeftForeArmRoll 25.974103
LeftHand -33.736880 -23.181509 12.383674
LeftHandThumb1 13.309201 4.376760
LeftHandIndex1 0.358630 41.640100
LeftHandPinky1 2.358598 62.678994
RightShoulderDummy -0.044936 0.197423 0.900522 13.546306 1.072553 -0.844255
RightShoulder 4.578142 6.238001 5.266430
RightArm 15.084827 68.514021 53.195504
RightForeArm 100.406448
RightForeArmRoll 23.199323
RightHand -46.127628 -24.934831 8.257656
RightHandThumb1 16.329062 7.435139
RightHandIndex1 3.446805 33.089523
RightHandPinky1 9.472970 62.075190
LeftUpLeg -5.557138 22.381807 -48.626434
LeftLeg 49.995121
LeftFoot -0.012357 -0.623463 -1.582158 -18.596030 18.073297 -5.836036
LeftToeBase 1.323923
RightUpLeg 0.226145 19.503921 -35.891017
RightLeg 48.656113
RightFoot -0.397107 0.915956 0.681228 -20.430148 6.052549 -15.774116
RightToeBase -4.201434
229
root -35.816384 -2.749423 38.339980 12.254535 -4.852034 14.067893
Spine 22.363803 -4.205151 2.921352
Spine1 8.223774 -1.493354 6.059613
Spine2 -22.607056 -0.629609 0.297767
NeckDummy -0.062866 0.204783 0.937802 13.604357 -1.093770 0.896441
Neck 2.083269 -15.802466 38.894228
Head -0.441597 0.012001 0.315417 -5.807576 -5.164232 -2.240465
LeftShoulderDummy -0.113983 0.237888 0.966684 13.597297 -1.276174 1.139765
LeftShoulder 3.485006 -7.686540 12.857953
LeftArm 21.381723 35.210435 22.178737
LeftForeArm 45.955901
LeftForeArmRoll 25.964467
LeftHand -33.503996 -23.216419 12.351553
LeftHandThumb1 13.678063 4.223911
LeftHandIndex1 0.023737 42.045897
LeftHandPinky1 2.038894 63.011561
RightShoulderDummy -0.046166 0.199420 0.897839 13.576830 1.070151 -0.839037
RightShoulder 4.566510 6.238156 5.227770
RightArm 15.097357 68.540807 53.316325
RightForeArm 100.440229
RightForeArmRoll 23.142099
RightHand -46.140273 -24.960910 8.277142
RightHandThumb1 16.323396 7.377933
RightHandIndex1 3.444145 33.083634
RightHandPinky1 9.566332 62.000559
LeftUpLeg -5.714914 22.380230 -48.618314
LeftLeg 49.968425
LeftFoot -0.012755 -0.622772 -1.578446 -18.615845 18.177353 -5.753786
LeftToeBase 1.361369
RightUpLeg 0.766745 19.464155 -35.866050
RightLeg 48.788000
RightFoot -0.388908 0.914628 0.678043 -19.940052 6.531634 -16.056503
RightToeBase -4.117624
230
root -35.875303 -2.759423 38.351858 12.232161 -4.806478 14.093485
Spine 22.346207 -4.217352 2.915281
Spine1 8.225958 -1.503168 6.034157
Spine2 -22.598144 -0.652882 0.274234
NeckDummy -0.064003 0.203582 0.937832 13.595985 -1.076845 0.844003
Neck 2.120555 -15.692438 38.862328
Head -0.435409 0.009651 0.310439 -5.737037 -5.131638 -2.195114
LeftShoulderDummy -0.116302 0.236092 0.966781 13.589977 -1.264952 1.111431
LeftShoulder 3.476577 -7.574913 12.877926
LeftArm 21.369289 35.151326 22.192363
LeftForeArm 45.936181
LeftForeArmRoll 26.388461
LeftHand -33.794137 -23.193267 12.128597
LeftHandThumb1 13.135773 4.682773
LeftHandIndex1 0.029759 41.527191
LeftHandPinky1 2.441145 62.610327
RightShoulderDummy -0.047555 0.198958 0.898199 13.568931 1.054478 -0.793022
RightShoulder 4.579278 6.209889 5.237183
RightArm 15.012359 68.583941 53.368462
RightForeArm 100.470531
RightForeArmRoll 23.019783
RightHand -46.158502 -25.003856 8.349610
RightHandThumb1 16.411254 7.411126
RightHandIndex1 3.347756 33.107045
RightHandPinky1 9.493039 61.915598
LeftUpLeg -5.869380 22.358379 -48.601645
LeftLeg 49.930768
LeftFoot -0.012529 -0.624406 -1.575288 -18.713539 18.263323 -5.630451
LeftToeBase 1.307614
RightUpLeg 1.099559 19.438591 -35.803800
RightLeg 48.794983
RightFoot -0.382575 0.900451 0.677391 -19.348604 6.773120 -16.333772
RightToeBase -3.851992
